<svg xmlns="http://www.w3.org/2000/svg" width="213" height="57" viewBox="0 0 213 57"><defs><mask id="m251b" width="2" height="2" x="-1" y="-1"><path fill="#fff" d="M0 0h213v51H0z"/><path d="M15.575.86H197.71c8.285 0 15 6.716 15 15v19.965c0 8.284-6.715 15-15 15H15.575c-8.284 0-15-6.716-15-15V15.86c0-8.284 6.716-15 15-15z"/></mask><filter id="m251a" width="233.3" height="77" x="-10" y="-10" filterUnits="userSpaceOnUse"><feOffset dx=".3" dy="6" in="SourceGraphic" result="FeOffset1532Out"/><feGaussianBlur in="FeOffset1532Out" result="FeGaussianBlur1533Out" stdDeviation="0 0"/></filter><filter id="m251c" width="200%" height="200%" x="-50%" y="-50%"><feGaussianBlur in="SourceGraphic" result="FeGaussianBlur1538Out" stdDeviation="0 0"/></filter><mask id="m251d"><path fill="#fff" d="M15.575.86H197.71c8.285 0 15 6.716 15 15v19.965c0 8.284-6.715 15-15 15H15.575c-8.284 0-15-6.716-15-15V15.86c0-8.284 6.716-15 15-15z"/></mask></defs><g><g><g filter="url(#m251a)"><path fill="none" d="M15.575.86H197.71c8.285 0 15 6.716 15 15v19.965c0 8.284-6.715 15-15 15H15.575c-8.284 0-15-6.716-15-15V15.86c0-8.284 6.716-15 15-15z" mask="url(&quot;#m251b&quot;)"/><path fill="#632687" d="M15.575.86H197.71c8.285 0 15 6.716 15 15v19.965c0 8.284-6.715 15-15 15H15.575c-8.284 0-15-6.716-15-15V15.86c0-8.284 6.716-15 15-15z"/></g><path fill="#8f44bb" d="M15.575.86H197.71c8.285 0 15 6.716 15 15v19.965c0 8.284-6.715 15-15 15H15.575c-8.284 0-15-6.716-15-15V15.86c0-8.284 6.716-15 15-15z"/><path fill="#fff" d="M0 56V-5h213v61zm.575-35.14v19.965c0 8.284 6.716 15 15 15H197.71c8.285 0 15-6.716 15-15V20.86c0-8.284-6.715-15-15-15H15.575c-8.284 0-15 6.716-15 15z" filter="url(#m251c)" mask="url(&quot;#m251d&quot;)"/></g><g><path fill="#fff" d="M53.997 30.385v6.206c0 .779-.622 1.409-1.39 1.409H35.389c-.77 0-1.39-.63-1.39-1.41v-6.205h2.775v4.796H51.22v-4.796zM39.77 25.028s-.606-.578.05-.578h2.24v-7.105s-.09-.345.425-.345h3.151c.37 0 .364.29.364.29v7.013h2.067c.795 0 .196.606.196.606s-3.381 4.563-3.856 5.042c-.34.345-.663-.041-.663-.041z"/></g><g><g><text fill="#fff" dominant-baseline="text-before-edge" font-family="'Poppins','Poppins-Medium'" font-size="21.76" transform="translate(69 19)"><tspan style="font-kerning:normal">Download</tspan></text></g></g></g></svg>