<svg xmlns="http://www.w3.org/2000/svg" width="58" height="58" viewBox="0 0 58 58"><defs><mask id="te09b" width="2" height="2" x="-1" y="-1"><path fill="#fff" d="M0 0h58v53H0z"/><path d="M10.117.4h36.955c5.523 0 10 4.478 10 10v32.021c0 5.523-4.477 10-10 10H10.117c-5.523 0-10-4.477-10-10v-32.02c0-5.523 4.477-10 10-10z"/></mask><filter id="te09a" width="78.3" height="78" x="-10" y="-10" filterUnits="userSpaceOnUse"><feOffset dx=".3" dy="5" in="SourceGraphic" result="FeOffset1255Out"/><feGaussianBlur in="FeOffset1255Out" result="FeGaussianBlur1256Out" stdDeviation="0 0"/></filter><linearGradient id="te09c" x1="49.07" x2="8.12" y1="52.42" y2=".4" gradientUnits="userSpaceOnUse"><stop offset="0" stop-color="#cf1d37"/><stop offset=".01" stop-color="#cf1d37"/><stop offset="1" stop-color="#f05036"/></linearGradient><filter id="te09d" width="200%" height="200%" x="-50%" y="-50%"><feGaussianBlur in="SourceGraphic" result="FeGaussianBlur1278Out" stdDeviation="0 0"/></filter><mask id="te09e"><path fill="#fff" d="M10.117.4h36.955c5.523 0 10 4.478 10 10v32.021c0 5.523-4.477 10-10 10H10.117c-5.523 0-10-4.477-10-10v-32.02c0-5.523 4.477-10 10-10z"/></mask><mask id="te09g" width="2.07" height="2.06" x="-1.04" y="-1.03"><path fill="#fff" d="M14 10h30v34H14z"/><path d="M16.922 18.978h23.361v19.615c0 2.163-1.746 3.924-3.893 3.924H20.816c-2.148 0-3.894-1.76-3.894-3.924zm25.308-5.884v3.923H14.976v-3.923h9.733v-1.962h7.787v1.962z"/></mask><filter id="te09f" width="50.2" height="57" x="4" y="0" filterUnits="userSpaceOnUse"><feOffset dx=".2" dy="3" in="SourceGraphic" result="FeOffset1293Out"/><feGaussianBlur in="FeOffset1293Out" result="FeGaussianBlur1294Out" stdDeviation="0 0"/></filter></defs><g><g><g filter="url(#te09a)"><path fill="none" d="M10.117.4h36.955c5.523 0 10 4.478 10 10v32.021c0 5.523-4.477 10-10 10H10.117c-5.523 0-10-4.477-10-10v-32.02c0-5.523 4.477-10 10-10z" mask="url(&quot;#te09b&quot;)"/><path fill="#8c0606" d="M10.117.4h36.955c5.523 0 10 4.478 10 10v32.021c0 5.523-4.477 10-10 10H10.117c-5.523 0-10-4.477-10-10v-32.02c0-5.523 4.477-10 10-10z"/></g><path fill="#ebeef3" d="M10.117.4h36.955c5.523 0 10 4.478 10 10v32.021c0 5.523-4.477 10-10 10H10.117c-5.523 0-10-4.477-10-10v-32.02c0-5.523 4.477-10 10-10z"/><path fill="url(#te09c)" d="M10.117.4h36.955c5.523 0 10 4.478 10 10v32.021c0 5.523-4.477 10-10 10H10.117c-5.523 0-10-4.477-10-10v-32.02c0-5.523 4.477-10 10-10z"/><path fill="#fff" fill-opacity=".58" d="M0 58V-5h58v63zm.117-42.6v32.021c0 5.523 4.477 10 10 10h36.955c5.523 0 10-4.477 10-10v-32.02c0-5.523-4.477-10-10-10H10.117c-5.523 0-10 4.477-10 10z" filter="url(#te09d)" mask="url(&quot;#te09e&quot;)"/></g><g><g filter="url(#te09f)"><path fill="none" stroke="#8c0606" stroke-opacity=".61" stroke-width="2" d="M16.922 18.978h23.361v19.615c0 2.163-1.746 3.924-3.893 3.924H20.816c-2.148 0-3.894-1.76-3.894-3.924zm25.308-5.884v3.923H14.976v-3.923h9.733v-1.962h7.787v1.962z" mask="url(&quot;#te09g&quot;)"/><path fill="#8c0606" fill-opacity=".61" d="M16.922 18.978h23.361v19.615c0 2.163-1.746 3.924-3.893 3.924H20.816c-2.148 0-3.894-1.76-3.894-3.924zm25.308-5.884v3.923H14.976v-3.923h9.733v-1.962h7.787v1.962z"/></g><path fill="#ebeef3" d="M16.922 18.978h23.361v19.615c0 2.163-1.746 3.924-3.893 3.924H20.816c-2.148 0-3.894-1.76-3.894-3.924zm25.308-5.884v3.923H14.976v-3.923h9.733v-1.962h7.787v1.962z"/></g></g></svg>