<svg xmlns="http://www.w3.org/2000/svg" width="213" height="57" viewBox="0 0 213 57"><defs><mask id="50vwb" width="2" height="2" x="-1" y="-1"><path fill="#fff" d="M0 0h213v51H0z"/><path d="M15.052.86h182.135c8.284 0 15 6.716 15 15v19.965c0 8.284-6.716 15-15 15H15.052c-8.285 0-15-6.716-15-15V15.86c0-8.284 6.716-15 15-15z"/></mask><filter id="50vwa" width="233.3" height="77" x="-10" y="-10" filterUnits="userSpaceOnUse"><feOffset dx=".3" dy="6" in="SourceGraphic" result="FeOffset1567Out"/><feGaussianBlur in="FeOffset1567Out" result="FeGaussianBlur1568Out" stdDeviation="0 0"/></filter><filter id="50vwc" width="200%" height="200%" x="-50%" y="-50%"><feGaussianBlur in="SourceGraphic" result="FeGaussianBlur1573Out" stdDeviation="0 0"/></filter><mask id="50vwd"><path fill="#fff" d="M15.052.86h182.135c8.284 0 15 6.716 15 15v19.965c0 8.284-6.716 15-15 15H15.052c-8.285 0-15-6.716-15-15V15.86c0-8.284 6.716-15 15-15z"/></mask></defs><g><g><g filter="url(#50vwa)"><path fill="none" d="M15.052.86h182.135c8.284 0 15 6.716 15 15v19.965c0 8.284-6.716 15-15 15H15.052c-8.285 0-15-6.716-15-15V15.86c0-8.284 6.716-15 15-15z" mask="url(&quot;#50vwb&quot;)"/><path fill="#165c9c" d="M15.052.86h182.135c8.284 0 15 6.716 15 15v19.965c0 8.284-6.716 15-15 15H15.052c-8.285 0-15-6.716-15-15V15.86c0-8.284 6.716-15 15-15z"/></g><path fill="#1e7cd3" d="M15.052.86h182.135c8.284 0 15 6.716 15 15v19.965c0 8.284-6.716 15-15 15H15.052c-8.285 0-15-6.716-15-15V15.86c0-8.284 6.716-15 15-15z"/><path fill="#fff" d="M0 56V-5h213v61zm.052-35.14v19.965c0 8.284 6.716 15 15 15h182.135c8.284 0 15-6.716 15-15V20.86c0-8.284-6.716-15-15-15H15.052c-8.284 0-15 6.716-15 15z" filter="url(#50vwc)" mask="url(&quot;#50vwd&quot;)"/></g><g><g><text fill="#fff" dominant-baseline="text-before-edge" font-family="'Poppins','Poppins-Medium'" font-size="21.76" transform="translate(89 19)"><tspan style="font-kerning:normal">Share</tspan></text></g></g><g><path fill="#fff" d="M59.774 30.617a4.2 4.2 0 0 0-3.3 1.605l-7.18-3.639c.093-.347.159-.705.159-1.083 0-.413-.077-.802-.19-1.175l7.144-3.623a4.21 4.21 0 0 0 3.367 1.677c2.34 0 4.227-1.87 4.227-4.186 0-2.313-1.887-4.19-4.227-4.19-2.33 0-4.223 1.877-4.223 4.19 0 .378.067.737.161 1.083l-7.176 3.64a4.215 4.215 0 0 0-3.305-1.606c-2.334 0-4.227 1.876-4.227 4.19 0 2.315 1.893 4.19 4.227 4.19a4.217 4.217 0 0 0 3.366-1.686l7.145 3.623a4.067 4.067 0 0 0-.195 1.18c0 2.315 1.896 4.19 4.227 4.19 2.334 0 4.227-1.875 4.227-4.19 0-2.314-1.893-4.19-4.227-4.19z"/></g></g></svg>