<svg xmlns="http://www.w3.org/2000/svg" width="55" height="55" viewBox="0 0 55 55"><defs><mask id="3hvkb" width="2" height="2" x="-1" y="-1"><path fill="#fff" d="M0 0h55v50H0z"/><path d="M10.183.074h34.34c5.524 0 10.001 4.477 10.001 10v29.964c0 5.523-4.477 10-10 10H10.183c-5.523 0-10-4.477-10-10V10.074c0-5.523 4.477-10 10-10z"/></mask><filter id="3hvka" width="75.3" height="75" x="-10" y="-10" filterUnits="userSpaceOnUse"><feOffset dx=".3" dy="5" in="SourceGraphic" result="FeOffset1470Out"/><feGaussianBlur in="FeOffset1470Out" result="FeGaussianBlur1471Out" stdDeviation="0 0"/></filter><filter id="3hvkc" width="200%" height="200%" x="-50%" y="-50%"><feGaussianBlur in="SourceGraphic" result="FeGaussianBlur1477Out" stdDeviation="0 0"/></filter><mask id="3hvkd"><path fill="#fff" d="M10.183.074h34.34c5.524 0 10.001 4.477 10.001 10v29.964c0 5.523-4.477 10-10 10H10.183c-5.523 0-10-4.477-10-10V10.074c0-5.523 4.477-10 10-10z"/></mask></defs><g><g><g filter="url(#3hvka)"><path fill="none" d="M10.183.074h34.34c5.524 0 10.001 4.477 10.001 10v29.964c0 5.523-4.477 10-10 10H10.183c-5.523 0-10-4.477-10-10V10.074c0-5.523 4.477-10 10-10z" mask="url(&quot;#3hvkb&quot;)"/><path fill="#5c5c5c" fill-opacity=".55" d="M10.183.074h34.34c5.524 0 10.001 4.477 10.001 10v29.964c0 5.523-4.477 10-10 10H10.183c-5.523 0-10-4.477-10-10V10.074c0-5.523 4.477-10 10-10z"/></g><path fill="#fff" d="M10.183.074h34.34c5.524 0 10.001 4.477 10.001 10v29.964c0 5.523-4.477 10-10 10H10.183c-5.523 0-10-4.477-10-10V10.074c0-5.523 4.477-10 10-10z"/><path fill="#fff" d="M10.183.074h34.34c5.524 0 10.001 4.477 10.001 10v29.964c0 5.523-4.477 10-10 10H10.183c-5.523 0-10-4.477-10-10V10.074c0-5.523 4.477-10 10-10z"/><path fill="#fff" fill-opacity=".58" d="M0 55V-5h55v60h-9.599c5.112-.444 9.123-4.735 9.123-9.962V15.074c0-5.523-4.477-10-10-10H10.183c-5.523 0-10 4.477-10 10v29.964c0 5.227 4.01 9.518 9.122 9.962zm10.183.038h34.34c.297 0 .59-.013.878-.038H9.305c.29.025.582.038.878.038z" filter="url(#3hvkc)" mask="url(&quot;#3hvkd&quot;)"/></g><g><g><text dominant-baseline="text-before-edge" style="text-transform:uppercase" fill="#22252c" font-family="'Poppins-SemiBold','Poppins-SemiBold'" font-size="51.64" font-style="none" font-weight="400" text-decoration="underline" transform="translate(17 9)"><tspan style="font-kerning:normal">s</tspan></text></g></g></g></svg>